# xmcd
#
# Track frame offsets:
#	150
#	18534
#	42961
#	62166
#	82668
#	100085
#	120838
#	138643
#	157403
#	174119
#	189808
#	209277
#	228631
#	244707
#	266185
#	284526
#	302562
#	319634
#
# Disc length: 4455 seconds
#
# Revision: 0
# Processed by: cddbd v1.5.1PL0 Copyright (c) Steve Scherf et al.
# Submitted via: dBpowerAMP V4.0
#
DISCID=f2116512
DTITLE=Destiny's Child - Best Hits
DYEAR=2005
DGENRE=R&B
TTITLE0=Lose My Breath
TTITLE1=Soldier
TTITLE2=Survivor
TTITLE3=Say My Name
TTITLE4=Jumpin, Jumpin
TTITLE5=Brown Eyes
TTITLE6=Emotion
TTITLE7=My Heart Still Beating
TTITLE8=Independent Woman Part I
TTITLE9=Bootylicious
TTITLE10=Nasty Girl
TTITLE11=Bills, Bills, Bills
TTITLE12=Bug A Boo
TTITLE13=Get On The Bus
TTITLE14=No, No, No Part II
TTITLE15=Dot
TTITLE16=Independent Woman Part II
TTITLE17=So Good
EXTD=best hits
EXTT0=
EXTT1=
EXTT2=
EXTT3=
EXTT4=
EXTT5=
EXTT6=
EXTT7=
EXTT8=
EXTT9=
EXTT10=
EXTT11=
EXTT12=
EXTT13=
EXTT14=
EXTT15=
EXTT16=
EXTT17=
PLAYORDER=
